<svg width="23" height="15" viewBox="0 0 23 15" fill="none" xmlns="http://www.w3.org/2000/svg">
<path d="M17.7507 1.25H3.16732C2.01672 1.25 1.08398 2.18274 1.08398 3.33333V11.6667C1.08398 12.8173 2.01672 13.75 3.16732 13.75H17.7507C18.9012 13.75 19.834 12.8173 19.834 11.6667V3.33333C19.834 2.18274 18.9012 1.25 17.7507 1.25Z" stroke="#F8F8F8" stroke-width="2.08333" stroke-linecap="round" stroke-linejoin="round"/>
<path d="M10.875 4.375L8.375 7.5H12.5417L10.0417 10.625M19.8333 5.41667H21.3958C21.534 5.41667 21.6664 5.47154 21.7641 5.56921C21.8618 5.66689 21.9167 5.79937 21.9167 5.9375V9.0625C21.9167 9.20063 21.8618 9.33311 21.7641 9.43078C21.6664 9.52846 21.534 9.58333 21.3958 9.58333H19.8333V5.41667Z" stroke="#F8F8F8" stroke-width="2.08333" stroke-linecap="round" stroke-linejoin="round"/>
</svg>
