<svg width="32" height="32" viewBox="0 0 32 32" fill="none" xmlns="http://www.w3.org/2000/svg">
<path d="M0 4C0 1.79086 1.79086 0 4 0H28C30.2091 0 32 1.79086 32 4V28C32 30.2091 30.2091 32 28 32H4C1.79086 32 0 30.2091 0 28V4Z" fill="#181A1B"/>
<g clip-path="url(#clip0_10_204)">
<path d="M19.7223 17L20.1668 14.1045H17.3883V12.2255C17.3883 11.4335 17.7763 10.661 19.0208 10.661H20.2838V8.19599C20.2838 8.19599 19.1378 8.00049 18.0418 8.00049C15.7538 8.00049 14.2583 9.38749 14.2583 11.898V14.105H11.7148V17.0005H14.2583V24.0005H17.3883V17.0005L19.7223 17Z" fill="#F8F8F8"/>
</g>
<defs>
<clipPath id="clip0_10_204">
<rect width="16" height="16" fill="white" transform="translate(8 8)"/>
</clipPath>
</defs>
</svg>
