<svg width="32" height="32" viewBox="0 0 32 32" fill="none" xmlns="http://www.w3.org/2000/svg">
<path d="M0 4C0 1.79086 1.79086 0 4 0H28C30.2091 0 32 1.79086 32 4V28C32 30.2091 30.2091 32 28 32H4C1.79086 32 0 30.2091 0 28V4Z" fill="#181A1B"/>
<g clip-path="url(#clip0_10_196)">
<path fill-rule="evenodd" clip-rule="evenodd" d="M12.976 8.71075C13.758 8.67475 14.0073 8.66675 15.9993 8.66675C17.9913 8.66675 18.2407 8.67541 19.022 8.71075C19.8033 8.74608 20.3367 8.87075 20.8033 9.05141C21.292 9.23608 21.7353 9.52475 22.102 9.89808C22.4753 10.2641 22.7633 10.7067 22.9473 11.1961C23.1287 11.6627 23.2527 12.1961 23.2887 12.9761C23.3247 13.7594 23.3327 14.0087 23.3327 16.0001C23.3327 17.9921 23.324 18.2414 23.2887 19.0234C23.2533 19.8034 23.1287 20.3367 22.9473 20.8034C22.7633 21.2928 22.4749 21.7362 22.102 22.1027C21.7353 22.4761 21.292 22.7641 20.8033 22.9481C20.3367 23.1294 19.8033 23.2534 19.0233 23.2894C18.2407 23.3254 17.9913 23.3334 15.9993 23.3334C14.0073 23.3334 13.758 23.3247 12.976 23.2894C12.196 23.2541 11.6627 23.1294 11.196 22.9481C10.7066 22.7641 10.2632 22.4756 9.89668 22.1027C9.5236 21.7365 9.23489 21.2933 9.05068 20.8041C8.87002 20.3374 8.74602 19.8041 8.71002 19.0241C8.67402 18.2407 8.66602 17.9914 8.66602 16.0001C8.66602 14.0081 8.67468 13.7587 8.71002 12.9774C8.74535 12.1961 8.87002 11.6627 9.05068 11.1961C9.23516 10.7068 9.52409 10.2636 9.89735 9.89741C10.2634 9.52442 10.7063 9.23571 11.1953 9.05141C11.662 8.87075 12.1953 8.74675 12.9753 8.71075H12.976ZM18.9627 10.0307C18.1893 9.99541 17.9573 9.98808 15.9993 9.98808C14.0413 9.98808 13.8093 9.99541 13.036 10.0307C12.3207 10.0634 11.9327 10.1827 11.674 10.2834C11.332 10.4167 11.0873 10.5747 10.8307 10.8314C10.5874 11.0681 10.4001 11.3563 10.2827 11.6747C10.182 11.9334 10.0627 12.3214 10.03 13.0367C9.99468 13.8101 9.98735 14.0421 9.98735 16.0001C9.98735 17.9581 9.99468 18.1901 10.03 18.9634C10.0627 19.6787 10.182 20.0667 10.2827 20.3254C10.4 20.6434 10.5873 20.9321 10.8307 21.1687C11.0673 21.4121 11.356 21.5994 11.674 21.7167C11.9327 21.8174 12.3207 21.9367 13.036 21.9694C13.8093 22.0047 14.0407 22.0121 15.9993 22.0121C17.958 22.0121 18.1893 22.0047 18.9627 21.9694C19.678 21.9367 20.066 21.8174 20.3247 21.7167C20.6667 21.5834 20.9113 21.4254 21.168 21.1687C21.4113 20.9321 21.5987 20.6434 21.716 20.3254C21.8167 20.0667 21.936 19.6787 21.9687 18.9634C22.004 18.1901 22.0113 17.9581 22.0113 16.0001C22.0113 14.0421 22.004 13.8101 21.9687 13.0367C21.936 12.3214 21.8167 11.9334 21.716 11.6747C21.5827 11.3327 21.4247 11.0881 21.168 10.8314C20.9313 10.5881 20.6432 10.4009 20.3247 10.2834C20.066 10.1827 19.678 10.0634 18.9627 10.0307ZM15.0627 18.2607C15.5858 18.4785 16.1683 18.5079 16.7106 18.3439C17.253 18.1799 17.7216 17.8327 18.0364 17.3616C18.3512 16.8905 18.4927 16.3247 18.4367 15.7608C18.3807 15.197 18.1307 14.6701 17.7293 14.2701C17.4735 14.0144 17.1642 13.8186 16.8236 13.6968C16.483 13.5751 16.1196 13.5303 15.7597 13.5658C15.3997 13.6013 15.0521 13.7162 14.7419 13.9022C14.4317 14.0881 14.1665 14.3406 13.9656 14.6413C13.7646 14.9421 13.6328 15.2836 13.5797 15.6414C13.5266 15.9992 13.5534 16.3643 13.6584 16.7104C13.7633 17.0566 13.9437 17.3752 14.1865 17.6432C14.4293 17.9113 14.7286 18.1222 15.0627 18.2607ZM13.334 13.3347C13.684 12.9847 14.0996 12.7071 14.5569 12.5177C15.0142 12.3282 15.5044 12.2307 15.9993 12.2307C16.4943 12.2307 16.9845 12.3282 17.4418 12.5177C17.8991 12.7071 18.3147 12.9847 18.6647 13.3347C19.0147 13.6848 19.2923 14.1003 19.4818 14.5576C19.6712 15.0149 19.7687 15.5051 19.7687 16.0001C19.7687 16.4951 19.6712 16.9852 19.4818 17.4425C19.2923 17.8999 19.0147 18.3154 18.6647 18.6654C17.9578 19.3723 16.999 19.7694 15.9993 19.7694C14.9997 19.7694 14.0409 19.3723 13.334 18.6654C12.6271 17.9585 12.23 16.9998 12.23 16.0001C12.23 15.0004 12.6271 14.0416 13.334 13.3347ZM20.6047 12.7921C20.6914 12.7103 20.7609 12.6119 20.8089 12.5027C20.8569 12.3936 20.8826 12.2759 20.8843 12.1567C20.886 12.0375 20.8638 11.9191 20.819 11.8086C20.7742 11.6981 20.7076 11.5978 20.6233 11.5134C20.539 11.4291 20.4386 11.3626 20.3281 11.3178C20.2177 11.2729 20.0993 11.2507 19.9801 11.2525C19.8608 11.2542 19.7432 11.2799 19.634 11.3279C19.5249 11.3759 19.4265 11.4453 19.3447 11.5321C19.1856 11.7008 19.0984 11.9248 19.1018 12.1567C19.1052 12.3886 19.1988 12.61 19.3628 12.774C19.5268 12.938 19.7482 13.0316 19.9801 13.0349C20.2119 13.0383 20.436 12.9512 20.6047 12.7921Z" fill="#F8F8F8"/>
</g>
<defs>
<clipPath id="clip0_10_196">
<rect width="16" height="16" fill="white" transform="translate(8 8)"/>
</clipPath>
</defs>
</svg>
