<svg width="32" height="32" viewBox="0 0 32 32" fill="none" xmlns="http://www.w3.org/2000/svg">
<path d="M0 4C0 1.79086 1.79086 0 4 0H28C30.2091 0 32 1.79086 32 4V28C32 30.2091 30.2091 32 28 32H4C1.79086 32 0 30.2091 0 28V4Z" fill="#181A1B"/>
<g clip-path="url(#clip0_10_200)">
<path fill-rule="evenodd" clip-rule="evenodd" d="M8.66602 9.89208C8.66602 9.5671 8.79511 9.25544 9.02491 9.02564C9.2547 8.79585 9.56637 8.66675 9.89135 8.66675H22.106C22.2671 8.66649 22.4266 8.69799 22.5754 8.75946C22.7243 8.82093 22.8596 8.91116 22.9735 9.02497C23.0875 9.13879 23.1778 9.27397 23.2395 9.42276C23.3011 9.57155 23.3328 9.73103 23.3327 9.89208V22.1067C23.3329 22.2678 23.3013 22.4274 23.2397 22.5762C23.1782 22.7251 23.0879 22.8604 22.974 22.9743C22.8602 23.0882 22.7249 23.1786 22.5761 23.2402C22.4273 23.3018 22.2678 23.3335 22.1067 23.3334H9.89135C9.73038 23.3334 9.57099 23.3017 9.42228 23.2401C9.27357 23.1785 9.13846 23.0881 9.02467 22.9743C8.91088 22.8604 8.82064 22.7253 8.7591 22.5765C8.69756 22.4278 8.66593 22.2684 8.66602 22.1074V9.89208ZM14.4713 14.2587H16.4573V15.2561C16.744 14.6828 17.4773 14.1667 18.5793 14.1667C20.692 14.1667 21.1927 15.3088 21.1927 17.4041V21.2854H19.0547V17.8814C19.0547 16.6881 18.768 16.0148 18.04 16.0148C17.03 16.0148 16.61 16.7408 16.61 17.8814V21.2854H14.4713V14.2587ZM10.8047 21.1941H12.9433V14.1667H10.8047V21.1934V21.1941ZM13.2493 11.8747C13.2534 12.0579 13.2208 12.2399 13.1535 12.4103C13.0862 12.5806 12.9856 12.7358 12.8575 12.8668C12.7294 12.9977 12.5765 13.1017 12.4077 13.1728C12.2388 13.2438 12.0575 13.2804 11.8743 13.2804C11.6912 13.2804 11.5099 13.2438 11.341 13.1728C11.1722 13.1017 11.0193 12.9977 10.8912 12.8668C10.7631 12.7358 10.6625 12.5806 10.5952 12.4103C10.5279 12.2399 10.4953 12.0579 10.4993 11.8747C10.5073 11.5153 10.6556 11.1733 10.9126 10.9219C11.1696 10.6705 11.5148 10.5297 11.8743 10.5297C12.2339 10.5297 12.5791 10.6705 12.8361 10.9219C13.0931 11.1733 13.2414 11.5153 13.2493 11.8747Z" fill="#F8F8F8"/>
</g>
<defs>
<clipPath id="clip0_10_200">
<rect width="16" height="16" fill="white" transform="translate(8 8)"/>
</clipPath>
</defs>
</svg>
